<svg width="94" height="39" viewBox="0 0 94 39" fill="none" xmlns="http://www.w3.org/2000/svg">
<path d="M0.528409 30V0.90909H6.67898V24.929H19.1506V30H0.528409ZM32.968 30.4261C30.7616 30.4261 28.8535 29.9574 27.2436 29.0199C25.6432 28.0729 24.4074 26.7566 23.5362 25.071C22.665 23.3759 22.2294 21.411 22.2294 19.1761C22.2294 16.9223 22.665 14.9527 23.5362 13.267C24.4074 11.572 25.6432 10.2557 27.2436 9.31818C28.8535 8.37121 30.7616 7.89773 32.968 7.89773C35.1745 7.89773 37.0779 8.37121 38.6783 9.31818C40.2881 10.2557 41.5286 11.572 42.3999 13.267C43.2711 14.9527 43.7067 16.9223 43.7067 19.1761C43.7067 21.411 43.2711 23.3759 42.3999 25.071C41.5286 26.7566 40.2881 28.0729 38.6783 29.0199C37.0779 29.9574 35.1745 30.4261 32.968 30.4261ZM32.9964 25.7386C34.0002 25.7386 34.8383 25.4545 35.5107 24.8864C36.183 24.3087 36.6896 23.5227 37.0305 22.5284C37.3809 21.5341 37.5561 20.4025 37.5561 19.1335C37.5561 17.8646 37.3809 16.733 37.0305 15.7386C36.6896 14.7443 36.183 13.9583 35.5107 13.3807C34.8383 12.803 34.0002 12.5142 32.9964 12.5142C31.9832 12.5142 31.1309 12.803 30.4396 13.3807C29.7578 13.9583 29.2417 14.7443 28.8913 15.7386C28.5504 16.733 28.38 17.8646 28.38 19.1335C28.38 20.4025 28.5504 21.5341 28.8913 22.5284C29.2417 23.5227 29.7578 24.3087 30.4396 24.8864C31.1309 25.4545 31.9832 25.7386 32.9964 25.7386ZM57.4709 38.6364C55.5107 38.6364 53.8298 38.3665 52.4283 37.8267C51.0362 37.2964 49.9283 36.572 49.1044 35.6534C48.2805 34.7348 47.7455 33.7027 47.4993 32.5568L53.0959 31.804C53.2663 32.2396 53.5362 32.6468 53.9055 33.0256C54.2749 33.4044 54.7625 33.7074 55.3686 33.9347C55.9841 34.1714 56.7322 34.2898 57.6129 34.2898C58.9292 34.2898 60.0135 33.9678 60.8658 33.3239C61.7275 32.6894 62.1584 31.6241 62.1584 30.1278V26.1364H61.9027C61.6375 26.7424 61.2398 27.3153 60.7095 27.8551C60.1792 28.3949 59.4974 28.8352 58.6641 29.1761C57.8307 29.517 56.8364 29.6875 55.6811 29.6875C54.0429 29.6875 52.5514 29.3087 51.2067 28.5511C49.8714 27.7841 48.8061 26.6146 48.0107 25.0426C47.2247 23.4612 46.8317 21.4631 46.8317 19.0483C46.8317 16.5767 47.2341 14.5123 48.0391 12.8551C48.844 11.1979 49.9141 9.95739 51.2493 9.13352C52.594 8.30966 54.0665 7.89773 55.6669 7.89773C56.8885 7.89773 57.9112 8.10606 58.7351 8.52273C59.5589 8.92992 60.2218 9.44129 60.7237 10.0568C61.2351 10.6629 61.6281 11.2595 61.9027 11.8466H62.13V8.18182H68.1385V30.2131C68.1385 32.0691 67.6839 33.6222 66.7749 34.8722C65.8658 36.1222 64.6063 37.0597 62.9964 37.6847C61.3961 38.3191 59.5542 38.6364 57.4709 38.6364ZM57.5987 25.142C58.5741 25.142 59.398 24.9006 60.0703 24.4176C60.7521 23.9252 61.273 23.2244 61.6328 22.3153C62.0021 21.3968 62.1868 20.2983 62.1868 19.0199C62.1868 17.7415 62.0069 16.6335 61.647 15.696C61.2872 14.7491 60.7663 14.0152 60.0845 13.4943C59.4027 12.9735 58.5741 12.7131 57.5987 12.7131C56.6044 12.7131 55.7663 12.983 55.0845 13.5227C54.4027 14.053 53.8866 14.7917 53.5362 15.7386C53.1858 16.6856 53.0107 17.7794 53.0107 19.0199C53.0107 20.2794 53.1858 21.3684 53.5362 22.2869C53.8961 23.196 54.4122 23.9015 55.0845 24.4034C55.7663 24.8958 56.6044 25.142 57.5987 25.142ZM82.8118 30.4261C80.6054 30.4261 78.6972 29.9574 77.0874 29.0199C75.487 28.0729 74.2512 26.7566 73.38 25.071C72.5088 23.3759 72.0732 21.411 72.0732 19.1761C72.0732 16.9223 72.5088 14.9527 73.38 13.267C74.2512 11.572 75.487 10.2557 77.0874 9.31818C78.6972 8.37121 80.6054 7.89773 82.8118 7.89773C85.0182 7.89773 86.9216 8.37121 88.522 9.31818C90.1319 10.2557 91.3724 11.572 92.2436 13.267C93.1148 14.9527 93.5504 16.9223 93.5504 19.1761C93.5504 21.411 93.1148 23.3759 92.2436 25.071C91.3724 26.7566 90.1319 28.0729 88.522 29.0199C86.9216 29.9574 85.0182 30.4261 82.8118 30.4261ZM82.8402 25.7386C83.844 25.7386 84.6821 25.4545 85.3544 24.8864C86.0268 24.3087 86.5334 23.5227 86.8743 22.5284C87.2247 21.5341 87.3999 20.4025 87.3999 19.1335C87.3999 17.8646 87.2247 16.733 86.8743 15.7386C86.5334 14.7443 86.0268 13.9583 85.3544 13.3807C84.6821 12.803 83.844 12.5142 82.8402 12.5142C81.8269 12.5142 80.9747 12.803 80.2834 13.3807C79.6016 13.9583 79.0855 14.7443 78.7351 15.7386C78.3942 16.733 78.2237 17.8646 78.2237 19.1335C78.2237 20.4025 78.3942 21.5341 78.7351 22.5284C79.0855 23.5227 79.6016 24.3087 80.2834 24.8864C80.9747 25.4545 81.8269 25.7386 82.8402 25.7386Z" fill="white"/>
</svg>
