<svg width="12" height="12" viewBox="0 0 12 12" fill="none" xmlns="http://www.w3.org/2000/svg">
<path d="M4.99781 0.463698C5.22659 -0.154567 6.10105 -0.154565 6.32983 0.4637L7.44113 3.46695C7.51306 3.66133 7.66632 3.81459 7.8607 3.88652L10.864 4.99782C11.4822 5.2266 11.4822 6.10107 10.864 6.32984L7.8607 7.44115C7.66632 7.51308 7.51306 7.66633 7.44113 7.86071L6.32983 10.864C6.10105 11.4822 5.22659 11.4822 4.99781 10.864L3.8865 7.86071C3.81458 7.66633 3.66132 7.51308 3.46694 7.44115L0.463683 6.32984C-0.154582 6.10106 -0.15458 5.2266 0.463685 4.99782L3.46694 3.88652C3.66132 3.81459 3.81458 3.66133 3.8865 3.46695L4.99781 0.463698Z" fill="#FF4E4E"/>
</svg>
