<svg width="38" height="38" viewBox="0 0 38 38" fill="none" xmlns="http://www.w3.org/2000/svg">
<g filter="url(#filter0_d_8_264)">
<path fill-rule="evenodd" clip-rule="evenodd" d="M4 15.0838C4 22.5413 9.41625 28.7425 16.5 30V19.1663H12.75V15H16.5V11.6663C16.5 7.91625 18.9163 5.83375 22.3337 5.83375C23.4163 5.83375 24.5837 6 25.6663 6.16625V10H23.75C21.9163 10 21.5 10.9163 21.5 12.0837V15H25.5L24.8337 19.1663H21.5V30C28.5837 28.7425 34 22.5425 34 15.0838C34 6.7875 27.25 0 19 0C10.75 0 4 6.7875 4 15.0838Z" fill="#098A5B"/>
</g>
<defs>
<filter id="filter0_d_8_264" x="0" y="0" width="38" height="38" filterUnits="userSpaceOnUse" color-interpolation-filters="sRGB">
<feFlood flood-opacity="0" result="BackgroundImageFix"/>
<feColorMatrix in="SourceAlpha" type="matrix" values="0 0 0 0 0 0 0 0 0 0 0 0 0 0 0 0 0 0 127 0" result="hardAlpha"/>
<feOffset dy="4"/>
<feGaussianBlur stdDeviation="2"/>
<feComposite in2="hardAlpha" operator="out"/>
<feColorMatrix type="matrix" values="0 0 0 0 0 0 0 0 0 0 0 0 0 0 0 0 0 0 0.25 0"/>
<feBlend mode="normal" in2="BackgroundImageFix" result="effect1_dropShadow_8_264"/>
<feBlend mode="normal" in="SourceGraphic" in2="effect1_dropShadow_8_264" result="shape"/>
</filter>
</defs>
</svg>
