<svg width="298" height="747" viewBox="0 0 298 747" fill="none" xmlns="http://www.w3.org/2000/svg">
<g opacity="0.65">
<path fill-rule="evenodd" clip-rule="evenodd" d="M100.203 725.277C82.772 696.976 102.173 587.736 81.1245 583.352C51.1416 577.107 37.6883 719.131 8.09683 706.093C-13.1706 696.722 13.056 603.274 22.9996 557.743C30.6446 522.736 55.7419 514.73 58.3873 475.814C60.2537 448.357 35.2506 447.764 32.3057 420.844C30.1527 401.163 40.048 383.382 46.9576 371.331C53.6993 359.574 68.3001 372.807 70.7336 353.826C79.1305 288.329 47.0748 135.644 75.2693 150.497C107.882 167.678 93.5413 301.369 107.57 373.232C109.647 383.873 116.307 386.136 121.253 386.055C132.032 385.88 142.06 370.325 152.799 372.494C168.158 375.596 186.946 373.666 197.001 401.355C204.977 423.317 193.351 458.494 194.506 487.341C195.916 522.537 213.407 561.329 204.548 589.772C194.66 621.516 170.999 594.879 155.874 611.365C145.814 622.331 141.449 650.534 133.067 667.685C122.666 688.967 111.54 743.682 100.203 725.277Z" fill="#F1AF07"/>
<path fill-rule="evenodd" clip-rule="evenodd" d="M246.753 400.858C259.295 412.206 276.904 360.255 287.695 381.352C298.258 402.004 294.662 457.54 296.422 497.965C297.843 530.573 254.904 482.081 252.52 516.034C250.331 547.203 223.474 615.55 225.232 645.042C228.589 701.345 317.61 766.947 310.683 825.207C304.839 874.356 275.765 819.964 262.95 856.245C248.831 896.215 256.656 975.087 243.03 1016.74C231.385 1052.33 206.866 1088.19 198.294 1053.87C183.27 993.732 214.166 849.366 192.312 813.708C172.332 781.106 145.511 973.181 126.387 936.543C109.413 904.024 154.214 818.12 159.618 751.072C161.848 723.414 149.064 711.686 146.53 686.637C143.675 658.407 144.724 626.722 143.958 596.266C142.776 549.298 135.222 503.608 140.737 456.352C145.848 412.558 159.359 377.66 172.363 352.881C185.424 327.992 201.259 306.65 214.736 315.342C229.19 324.664 232.718 388.16 246.753 400.858Z" fill="#F7C6BC"/>
<path fill-rule="evenodd" clip-rule="evenodd" d="M186.918 171.375C189.159 178.835 195.271 176.198 198.401 170.832C222.328 129.795 238.683 7.45076 265.543 36.5312C290.012 63.0231 216.998 136.035 223.469 197.972C228.476 245.885 267.59 191.498 284.678 219.661C295.781 237.96 303.42 291.906 293.198 312.896C277.979 344.146 253.622 321.607 233.536 324.676C225.302 325.934 215.053 312.461 208.999 325.76C200.96 343.419 205.473 378.005 199.406 399.647C191.588 427.529 182.433 457.975 169.015 468.37C156.951 477.716 140.816 473.385 131.906 451.942C122.158 428.479 124.301 389.181 122.535 356.503C121.235 332.458 126.554 306.994 122.851 284.401C118.653 258.787 94.7446 245.986 100.516 222.158C108.307 189.992 140.613 227.358 145.248 191.926C150.981 148.096 119.914 114.438 120.605 68.5743C121.072 37.5901 137.149 -13.5989 148.089 3.36037C170.819 38.5979 171.158 118.917 186.918 171.375Z" fill="#FA7B60"/>
</g>
</svg>
